<?xml version="1.0" encoding="UTF-8" standalone="no"?>
<!-- Created with Inkscape (http://www.inkscape.org/) -->

<svg
   xmlns:dc="http://purl.org/dc/elements/1.1/"
   xmlns:cc="http://creativecommons.org/ns#"
   xmlns:rdf="http://www.w3.org/1999/02/22-rdf-syntax-ns#"
   xmlns:svg="http://www.w3.org/2000/svg"
   xmlns="http://www.w3.org/2000/svg"
   xmlns:sodipodi="http://sodipodi.sourceforge.net/DTD/sodipodi-0.dtd"
   xmlns:inkscape="http://www.inkscape.org/namespaces/inkscape"
   width="256"
   height="256"
   viewBox="0 0 67.733332 67.733335"
   version="1.1"
   id="svg8"
   inkscape:version="0.92.3 (2405546, 2018-03-11)"
   sodipodi:docname="eris.svg"
   inkscape:export-filename="D:\projects\lantern\SpaceLens\media\eris.png"
   inkscape:export-xdpi="96.000008"
   inkscape:export-ydpi="96.000008">
  <defs
     id="defs2">
    <inkscape:path-effect
       effect="envelope"
       id="path-effect5496"
       is_visible="true"
       yy="true"
       xx="true"
       bendpath1="m 11.944284,240.57157 c 8.316641,-2.81392 16.810985,-1.54067 25.378583,1.41741"
       bendpath2="m 37.322867,241.98898 v 44.36981"
       bendpath3="m 12.511248,287.68171 c 8.534001,1.93018 16.781365,1.28062 24.811619,-1.32292"
       bendpath4="m 11.944284,240.47708 c -6.1413359,15.87181 -4.9584003,31.58439 0.47247,47.20463"
       bendpath1-nodetypes="cc"
       bendpath4-nodetypes="cc"
       bendpath3-nodetypes="cc" />
  </defs>
  <sodipodi:namedview
     id="base"
     pagecolor="#ffffff"
     bordercolor="#666666"
     borderopacity="1.0"
     inkscape:pageopacity="0.0"
     inkscape:pageshadow="2"
     inkscape:zoom="0.37012621"
     inkscape:cx="-333.17981"
     inkscape:cy="175.14988"
     inkscape:document-units="mm"
     inkscape:current-layer="svg8"
     showgrid="false"
     units="px"
     inkscape:window-width="1920"
     inkscape:window-height="1017"
     inkscape:window-x="-8"
     inkscape:window-y="-8"
     inkscape:window-maximized="1"
     inkscape:snap-global="true" />
  <metadata
     id="metadata5">
    <rdf:RDF>
      <cc:Work
         rdf:about="">
        <dc:format>image/svg+xml</dc:format>
        <dc:type
           rdf:resource="http://purl.org/dc/dcmitype/StillImage" />
        <dc:title />
      </cc:Work>
    </rdf:RDF>
  </metadata>
  <g
     inkscape:groupmode="layer"
     id="layer3"
     inkscape:label="Grid"
     style="display:none">
    <g
       style="display:inline"
       id="g5640"
       transform="translate(2.078869,0.75595238)">
      <path
         sodipodi:nodetypes="ccc"
         inkscape:connector-curvature="0"
         id="path10"
         d="m 9.1423142,238.86252 c 8.2642408,-3.48171 17.1145698,-5.34089 28.2064578,0 h 21.166653"
         style="fill:none;stroke:#000000;stroke-width:0.21699999;stroke-linecap:round;stroke-linejoin:round;stroke-miterlimit:4;stroke-dasharray:none;stroke-opacity:1"
         transform="translate(0,-229.26665)" />
      <path
         sodipodi:nodetypes="ccc"
         inkscape:connector-curvature="0"
         id="path10-3"
         d="m 6.4362102,245.91583 c 8.7669828,-2.58671 20.7226148,-3.60951 30.9125618,0 h 21.166653"
         style="fill:none;stroke:#000000;stroke-width:0.21699999;stroke-linecap:round;stroke-linejoin:round;stroke-miterlimit:4;stroke-dasharray:none;stroke-opacity:1"
         transform="translate(0,-229.26665)" />
      <path
         sodipodi:nodetypes="ccc"
         inkscape:connector-curvature="0"
         id="path10-9"
         d="m 4.7341601,252.96913 c 8.7152619,-1.58943 22.3023699,-2.13525 32.6146119,0 h 21.166654"
         style="fill:none;stroke:#000000;stroke-width:0.21699999;stroke-linecap:round;stroke-linejoin:round;stroke-miterlimit:4;stroke-dasharray:none;stroke-opacity:1"
         transform="translate(0,-229.26665)" />
      <path
         sodipodi:nodetypes="ccc"
         inkscape:connector-curvature="0"
         id="path10-4"
         d="m 3.9397624,260.02243 c 9.4896226,-0.78723 24.0975546,-0.81628 33.4090096,0 h 21.166654"
         style="fill:none;stroke:#000000;stroke-width:0.21699999;stroke-linecap:round;stroke-linejoin:round;stroke-miterlimit:4;stroke-dasharray:none;stroke-opacity:1"
         transform="translate(0,-229.26665)" />
      <path
         sodipodi:nodetypes="ccc"
         inkscape:connector-curvature="0"
         id="path10-5"
         d="m 4.0641932,267.07573 c 9.1568498,0.66246 23.5939218,0.76163 33.2845788,0 h 21.166653"
         style="fill:none;stroke:#000000;stroke-width:0.21699999;stroke-linecap:round;stroke-linejoin:round;stroke-miterlimit:4;stroke-dasharray:none;stroke-opacity:1"
         transform="translate(0,-229.26665)" />
      <path
         sodipodi:nodetypes="ccc"
         inkscape:connector-curvature="0"
         id="path10-6"
         d="m 5.0330452,274.12903 c 9.2329818,1.94549 22.7265718,2.15052 32.3157268,0 h 21.166653"
         style="fill:none;stroke:#000000;stroke-width:0.21699999;stroke-linecap:round;stroke-linejoin:round;stroke-miterlimit:4;stroke-dasharray:none;stroke-opacity:1"
         transform="translate(0,-229.26665)" />
      <path
         sodipodi:nodetypes="ccc"
         inkscape:connector-curvature="0"
         id="path10-54"
         d="m 6.7368885,281.18234 c 9.4021525,2.19408 21.2097305,2.26017 30.6118835,0 h 21.166653"
         style="fill:none;stroke:#000000;stroke-width:0.21699999;stroke-linecap:round;stroke-linejoin:round;stroke-miterlimit:4;stroke-dasharray:none;stroke-opacity:1"
         transform="translate(0,-229.26665)" />
      <path
         sodipodi:nodetypes="cc"
         inkscape:connector-curvature="0"
         id="path10-1"
         d="m 9.1423142,288.23564 c -6.6508368,-16.79302 -7.4165124,-33.2923 0,-49.37312"
         style="fill:none;stroke:#000000;stroke-width:0.21699999;stroke-linecap:round;stroke-linejoin:round;stroke-miterlimit:4;stroke-dasharray:none;stroke-opacity:1"
         transform="translate(0,-229.26665)" />
      <path
         sodipodi:nodetypes="ccc"
         inkscape:connector-curvature="0"
         id="path10-96"
         d="m 9.1423142,288.23564 c 9.0693758,3.80308 18.4251078,4.03444 28.2064578,0 h 21.166653"
         style="fill:none;stroke:#000000;stroke-width:0.21699999;stroke-linecap:round;stroke-linejoin:round;stroke-miterlimit:4;stroke-dasharray:none;stroke-opacity:1"
         transform="translate(0,-229.26665)" />
      <path
         sodipodi:nodetypes="cc"
         inkscape:connector-curvature="0"
         id="path10-1-6"
         d="m 16.195615,290.3905 c -5.308846,-16.9805 -5.724994,-34.93012 0,-53.86994"
         style="fill:none;stroke:#000000;stroke-width:0.21699999;stroke-linecap:round;stroke-linejoin:round;stroke-miterlimit:4;stroke-dasharray:none;stroke-opacity:1"
         transform="translate(0,-229.26665)" />
      <path
         sodipodi:nodetypes="cc"
         inkscape:connector-curvature="0"
         id="path10-1-0"
         d="m 23.248917,291.10879 c -3.889895,-18.51234 -3.589938,-37.02469 0,-55.53703"
         style="fill:none;stroke:#000000;stroke-width:0.21699999;stroke-linecap:round;stroke-linejoin:round;stroke-miterlimit:4;stroke-dasharray:none;stroke-opacity:1"
         transform="translate(0,-229.26665)" />
      <path
         sodipodi:nodetypes="cc"
         inkscape:connector-curvature="0"
         id="path10-1-1"
         d="m 30.30222,290.3738 c -1.768877,-17.91254 -1.615089,-35.92628 0,-54.01693"
         style="fill:none;stroke:#000000;stroke-width:0.21699999;stroke-linecap:round;stroke-linejoin:round;stroke-miterlimit:4;stroke-dasharray:none;stroke-opacity:1"
         transform="translate(0,-229.26665)" />
      <path
         sodipodi:nodetypes="cc"
         inkscape:connector-curvature="0"
         id="path10-1-3"
         d="M 37.348772,288.23564 V 238.86252"
         style="fill:none;stroke:#000000;stroke-width:0.21699999;stroke-linecap:round;stroke-linejoin:round;stroke-miterlimit:4;stroke-dasharray:none;stroke-opacity:1"
         transform="translate(0,-229.26665)" />
      <path
         sodipodi:nodetypes="cc"
         inkscape:connector-curvature="0"
         id="path10-1-4"
         d="M 44.408821,288.23564 V 238.86252"
         style="fill:none;stroke:#000000;stroke-width:0.21699999;stroke-linecap:round;stroke-linejoin:round;stroke-miterlimit:4;stroke-dasharray:none;stroke-opacity:1"
         transform="translate(0,-229.26665)" />
      <path
         sodipodi:nodetypes="cc"
         inkscape:connector-curvature="0"
         id="path10-1-45"
         d="M 58.515428,288.23564 V 238.86252"
         style="fill:none;stroke:#000000;stroke-width:0.21699999;stroke-linecap:round;stroke-linejoin:round;stroke-miterlimit:4;stroke-dasharray:none;stroke-opacity:1"
         transform="translate(0,-229.26665)" />
      <path
         sodipodi:nodetypes="cc"
         inkscape:connector-curvature="0"
         id="path10-1-5"
         d="M 51.462126,288.23564 V 238.86252"
         style="fill:none;stroke:#000000;stroke-width:0.21699999;stroke-linecap:round;stroke-linejoin:round;stroke-miterlimit:4;stroke-dasharray:none;stroke-opacity:1"
         transform="translate(0,-229.26665)" />
    </g>
  </g>
  <g
     inkscape:label="Pattern"
     inkscape:groupmode="layer"
     id="layer1"
     transform="translate(0,-229.26665)"
     style="display:inline">
    <g
       transform="translate(2.078869,230.0226)"
       style="display:inline;opacity:1;fill:#000000;fill-opacity:1"
       id="g5667">
      <path
         transform="scale(0.26458333)"
         inkscape:connector-curvature="0"
         id="path5531"
         d="m 24.923704,62.246105 c 0,-0.07981 1.289709,-3.97991 1.798055,-5.437341 2.231282,-6.397104 4.766629,-12.734154 7.590865,-18.973215 l 0.555733,-1.227678 0.931692,-0.392235 c 5.382206,-2.26587 12.137659,-4.737737 17.270977,-6.31957 2.868848,-0.884037 7.47625,-2.166111 7.543325,-2.099037 0.01181,0.01181 -0.180139,0.703321 -0.426553,1.536693 -2.468447,8.348278 -4.692266,16.886088 -6.470295,24.841113 -0.200311,0.896205 -0.381937,1.699777 -0.403614,1.785714 l -0.03941,0.15625 -0.838333,0.127939 c -7.494295,1.143712 -15.863594,2.893041 -23.092797,4.826795 -1.231974,0.329543 -4.226137,1.1636 -4.355792,1.213353 -0.03687,0.01415 -0.06385,-0.0022 -0.06385,-0.03878 z"
         style="opacity:1;vector-effect:none;fill:#000000;fill-opacity:1;fill-rule:evenodd;stroke:#000000;stroke-width:0.03661417;stroke-linecap:round;stroke-linejoin:round;stroke-miterlimit:4;stroke-dasharray:none;stroke-dashoffset:0;stroke-opacity:1;paint-order:markers stroke fill" />
      <path
         transform="scale(0.26458333)"
         inkscape:connector-curvature="0"
         id="path5533"
         d="M 110.55836,55.256877 C 107.7411,54.855554 102.65626,54.34642 99.004743,54.100039 94.680965,53.808298 92.250609,53.718802 87.400885,53.672738 l -4.122416,-0.03916 0.03431,-0.163928 c 0.01887,-0.09016 0.149105,-0.959423 0.289406,-1.931695 0.9525,-6.600704 2.197731,-14.1412 3.565687,-21.59201 0.709286,-3.863249 1.091225,-5.848216 1.133404,-5.890396 0.04456,-0.04456 5.548133,0.09683 6.915393,0.177666 4.148414,0.24526 8.090981,0.699085 12.342801,1.420767 1.11135,0.188635 4.65613,0.900464 5.7448,1.153618 l 0.75718,0.176068 -0.0186,0.250015 c -0.0102,0.137508 -0.1301,1.542694 -0.26642,3.122636 -0.64925,7.525094 -1.57129,19.555654 -1.86653,24.354147 -0.0412,0.669882 -0.0513,0.709824 -0.17677,0.702532 -0.0732,-0.0043 -0.60184,-0.07451 -1.17479,-0.156126 z"
         style="opacity:1;vector-effect:none;fill:#000000;fill-opacity:1;fill-rule:evenodd;stroke:#000000;stroke-width:0.05178026;stroke-linecap:round;stroke-linejoin:round;stroke-miterlimit:4;stroke-dasharray:none;stroke-dashoffset:0;stroke-opacity:1;paint-order:markers stroke fill" />
      <path
         transform="scale(0.26458333)"
         inkscape:connector-curvature="0"
         id="path5535"
         d="M 141.62055,49.612357 V 36.732912 H 154.5 167.37944 V 49.612357 62.491802 H 154.5 141.62055 Z"
         style="opacity:1;vector-effect:none;fill:#000000;fill-opacity:1;fill-rule:evenodd;stroke:#000000;stroke-width:0.05178026;stroke-linecap:round;stroke-linejoin:round;stroke-miterlimit:4;stroke-dasharray:none;stroke-dashoffset:0;stroke-opacity:1;paint-order:markers stroke fill" />
      <path
         transform="scale(0.26458333)"
         inkscape:connector-curvature="0"
         id="path5537"
         d="M 194.96924,49.612357 V 36.732912 h 12.87944 12.87945 v 12.879445 12.879445 h -12.87945 -12.87944 z"
         style="opacity:1;vector-effect:none;fill:#000000;fill-opacity:1;fill-rule:evenodd;stroke:#000000;stroke-width:0.05178026;stroke-linecap:round;stroke-linejoin:round;stroke-miterlimit:4;stroke-dasharray:none;stroke-dashoffset:0;stroke-opacity:1;paint-order:markers stroke fill" />
      <path
         transform="scale(0.26458333)"
         inkscape:connector-curvature="0"
         id="path5539"
         d="M 168.26333,76.25513 V 63.375685 h 12.91101 12.91101 V 76.25513 89.134575 h -12.91101 -12.91101 z"
         style="opacity:1;vector-effect:none;fill:#000000;fill-opacity:1;fill-rule:evenodd;stroke:#000000;stroke-width:0.05178026;stroke-linecap:round;stroke-linejoin:round;stroke-miterlimit:4;stroke-dasharray:none;stroke-dashoffset:0;stroke-opacity:1;paint-order:markers stroke fill" />
      <path
         transform="scale(0.26458333)"
         inkscape:connector-curvature="0"
         id="path5541"
         d="m 139.97906,88.898827 c -7.88743,-1.596131 -17.41476,-2.923429 -27.04313,-3.767506 -0.96675,-0.08475 -1.76642,-0.163341 -1.77703,-0.174643 -0.0217,-0.02311 0.27363,-6.614473 0.47333,-10.564016 0.35025,-6.927136 1.00091,-17.838368 1.06826,-17.914184 0.0764,-0.08607 5.12784,0.762809 8.21194,1.380003 4.96245,0.993096 9.49671,2.125298 14.16838,3.53784 1.86725,0.56459 5.52782,1.769554 5.60866,1.846226 0.0261,0.02478 0.0403,5.840639 0.0316,12.92413 l -0.0159,12.879076 z"
         style="opacity:1;vector-effect:none;fill:#000000;fill-opacity:1;fill-rule:evenodd;stroke:#000000;stroke-width:0.05178026;stroke-linecap:round;stroke-linejoin:round;stroke-miterlimit:4;stroke-dasharray:none;stroke-dashoffset:0;stroke-opacity:1;paint-order:markers stroke fill" />
      <path
         transform="scale(0.26458333)"
         inkscape:connector-curvature="0"
         id="path5543"
         d="m 49.065326,85.023368 c 0,-0.188508 0.515967,-3.809159 0.885151,-6.211289 0.824583,-5.365243 1.611792,-9.856266 2.689166,-15.341692 0.257263,-1.309849 1.352676,-6.557967 1.373067,-6.578358 0.06021,-0.06021 6.305556,-0.858678 8.75281,-1.119048 6.386175,-0.679443 10.900071,-0.974581 18.393551,-1.202651 l 1.126254,-0.03428 -0.0375,0.237155 c -0.117669,0.744209 -0.729375,5.356794 -1.078037,8.12897 -0.807507,6.420406 -1.465983,12.43815 -2.05519,18.782142 -0.108019,1.163044 -0.204201,2.122429 -0.213739,2.131967 -0.0095,0.0095 -1.59123,0.045 -3.514871,0.0788 -8.610595,0.151305 -18.573139,0.623124 -25.310512,1.198689 -1.012589,0.0865 -1.010153,0.08667 -1.010153,-0.0704 z"
         style="opacity:1;vector-effect:none;fill:#000000;fill-opacity:1;fill-rule:evenodd;stroke:#000000;stroke-width:0.05178026;stroke-linecap:round;stroke-linejoin:round;stroke-miterlimit:4;stroke-dasharray:none;stroke-dashoffset:0;stroke-opacity:1;paint-order:markers stroke fill" />
      <path
         transform="scale(0.26458333)"
         inkscape:connector-curvature="0"
         id="path5545"
         d="m 15.288351,115.65924 c 0,-0.28481 0.203719,-3.60064 0.31857,-5.18519 0.438636,-6.0517 1.204309,-12.538539 2.179733,-18.466853 0.154261,-0.937548 0.295966,-1.779219 0.3149,-1.870381 0.0278,-0.133869 0.07933,-0.172426 0.267893,-0.200469 0.128407,-0.0191 1.156809,-0.192609 2.285339,-0.385582 4.88679,-0.835618 10.32868,-1.614327 15.499528,-2.21791 4.255659,-0.496755 11.735665,-1.225573 11.810478,-1.15076 0.02104,0.02104 -0.07738,0.970958 -0.218715,2.110929 -0.99703,8.041871 -1.70154,15.919976 -2.127536,23.790956 -0.05826,1.07644 -0.114329,1.96707 -0.124599,1.97917 -0.01027,0.0121 -1.007876,0.0603 -2.216903,0.10711 -10.467287,0.40525 -20.671561,0.98042 -26.839642,1.51281 -0.600726,0.0519 -1.105013,0.0943 -1.120638,0.0943 -0.01562,0 -0.02841,-0.0532 -0.02841,-0.11811 z"
         style="opacity:1;vector-effect:none;fill:#000000;fill-opacity:1;fill-rule:evenodd;stroke:#000000;stroke-width:0.05178026;stroke-linecap:round;stroke-linejoin:round;stroke-miterlimit:4;stroke-dasharray:none;stroke-dashoffset:0;stroke-opacity:1;paint-order:markers stroke fill" />
      <path
         transform="scale(0.26458333)"
         inkscape:connector-curvature="0"
         id="path5547"
         d="m 105.88641,113.91131 c -6.159802,-0.18725 -12.84555,-0.29755 -23.251412,-0.38358 l -4.65829,-0.0385 0.03582,-0.70261 c 0.0197,-0.38644 0.07826,-1.79643 0.13012,-3.1333 0.215989,-5.56761 0.614842,-12.548365 1.038888,-18.182747 0.241886,-3.21399 0.508189,-6.472497 0.541313,-6.623552 l 0.03339,-0.152263 4.968079,0.0408 c 6.464897,0.0531 11.189112,0.189466 16.837372,0.486029 3.43039,0.180112 8.60156,0.529524 8.65698,0.584945 0.01,0.0096 -0.023,1.010881 -0.0724,2.225151 -0.22223,5.467154 -0.48574,14.295437 -0.59733,20.011707 -0.0366,1.87509 -0.0833,3.98458 -0.10375,4.68774 l -0.0372,1.27847 -0.45078,-0.009 c -0.24793,-0.005 -1.62982,-0.0452 -3.07086,-0.089 z"
         style="opacity:1;vector-effect:none;fill:#000000;fill-opacity:1;fill-rule:evenodd;stroke:#000000;stroke-width:0.05178026;stroke-linecap:round;stroke-linejoin:round;stroke-miterlimit:4;stroke-dasharray:none;stroke-dashoffset:0;stroke-opacity:1;paint-order:markers stroke fill" />
      <path
         transform="scale(0.26458333)"
         inkscape:connector-curvature="0"
         id="path5549"
         d="M 141.62055,102.8979 V 90.018459 H 154.5 167.37944 V 102.8979 115.77735 H 154.5 141.62055 Z"
         style="opacity:1;vector-effect:none;fill:#000000;fill-opacity:1;fill-rule:evenodd;stroke:#000000;stroke-width:0.05178026;stroke-linecap:round;stroke-linejoin:round;stroke-miterlimit:4;stroke-dasharray:none;stroke-dashoffset:0;stroke-opacity:1;paint-order:markers stroke fill" />
      <path
         transform="scale(0.26458333)"
         inkscape:connector-curvature="0"
         id="path5551"
         d="M 194.96924,102.8979 V 90.018459 h 12.87944 12.87945 v 12.879441 12.87945 h -12.87945 -12.87944 z"
         style="opacity:1;vector-effect:none;fill:#000000;fill-opacity:1;fill-rule:evenodd;stroke:#000000;stroke-width:0.05178026;stroke-linecap:round;stroke-linejoin:round;stroke-miterlimit:4;stroke-dasharray:none;stroke-dashoffset:0;stroke-opacity:1;paint-order:markers stroke fill" />
      <path
         transform="scale(0.26458333)"
         inkscape:connector-curvature="0"
         id="path5553"
         d="m 168.26333,129.57224 v -12.91101 h 12.91101 12.91101 v 12.91101 12.91102 h -12.91101 -12.91101 z"
         style="opacity:1;vector-effect:none;fill:#000000;fill-opacity:1;fill-rule:evenodd;stroke:#000000;stroke-width:0.05178026;stroke-linecap:round;stroke-linejoin:round;stroke-miterlimit:4;stroke-dasharray:none;stroke-dashoffset:0;stroke-opacity:1;paint-order:markers stroke fill" />
      <path
         transform="scale(0.26458333)"
         inkscape:connector-curvature="0"
         id="path5555"
         d="m 110.20977,140.9252 c -0.0522,-3.41864 0.007,-23.6754 0.0731,-25.12111 l 0.0408,-0.88871 0.48036,0.0214 c 0.2642,0.0118 1.6736,0.0646 3.13201,0.11735 5.07934,0.18386 10.59354,0.4569 15.94147,0.78935 3.58868,0.2231 10.1607,0.71063 10.65395,0.79035 l 0.20519,0.0332 v 12.90361 12.90361 l -0.33146,0.0379 c -0.8504,0.0971 -7.12171,0.51196 -11.00119,0.72772 -5.27123,0.29317 -12.19298,0.59344 -16.73065,0.72579 -0.65976,0.0192 -1.47316,0.0508 -1.80755,0.0701 l -0.608,0.0351 z"
         style="opacity:1;vector-effect:none;fill:#000000;fill-opacity:1;fill-rule:evenodd;stroke:#000000;stroke-width:0.05178026;stroke-linecap:round;stroke-linejoin:round;stroke-miterlimit:4;stroke-dasharray:none;stroke-dashoffset:0;stroke-opacity:1;paint-order:markers stroke fill" />
      <path
         transform="scale(0.26458333)"
         inkscape:connector-curvature="0"
         id="path5557"
         d="m 70.183828,144.43622 c -5.514674,-0.0455 -11.095513,-0.13221 -16.004604,-0.24862 -3.120444,-0.074 -7.856982,-0.2021 -7.869115,-0.21284 -0.02087,-0.0185 -0.15763,-4.05497 -0.213107,-6.28973 -0.150267,-6.05311 -0.03342,-17.29192 0.228869,-22.0131 l 0.03918,-0.7052 0.513607,-0.0371 c 0.550372,-0.0397 5.822558,-0.18613 10.362594,-0.28774 3.113596,-0.0697 10.083504,-0.16698 15.960188,-0.2228 l 3.901492,-0.0371 -0.03731,0.87126 c -0.19168,4.47616 -0.279078,17.62664 -0.162929,24.51515 0.04186,2.48277 0.09043,4.56384 0.107929,4.62461 0.02897,0.10061 -0.02639,0.10952 -0.619569,0.0997 -0.358262,-0.006 -3.151511,-0.0314 -6.207223,-0.0566 z"
         style="opacity:1;vector-effect:none;fill:#000000;fill-opacity:1;fill-rule:evenodd;stroke:#000000;stroke-width:0.05178026;stroke-linecap:round;stroke-linejoin:round;stroke-miterlimit:4;stroke-dasharray:none;stroke-dashoffset:0;stroke-opacity:1;paint-order:markers stroke fill" />
      <path
         transform="scale(0.26458333)"
         inkscape:connector-curvature="0"
         id="path5559"
         d="m 45.093006,173.09961 c -7.791349,-0.82371 -14.976213,-1.85702 -21.6603,-3.11511 -2.231538,-0.42002 -4.222811,-0.82585 -4.253946,-0.86696 -0.02013,-0.0266 -0.2376,-1.22638 -0.639282,-3.52704 -1.009345,-5.78109 -1.84347,-11.91131 -2.426834,-17.83551 -0.18901,-1.91944 -0.390132,-4.33798 -0.362996,-4.36512 0.01329,-0.0133 0.419224,0.004 0.902073,0.0393 6.614828,0.47791 16.758874,0.9902 25.752912,1.30056 1.666752,0.0575 3.034856,0.10829 3.040231,0.11284 0.0054,0.005 0.05568,0.90319 0.111796,1.997 0.36833,7.17988 0.997799,14.6985 1.80771,21.59201 0.27223,2.31706 0.559632,4.61756 0.597473,4.78244 0.03045,0.13266 0.01269,0.14161 -0.26849,0.13538 -0.165601,-0.004 -1.335757,-0.11607 -2.600347,-0.24976 z"
         style="opacity:1;vector-effect:none;fill:#000000;fill-opacity:1;fill-rule:evenodd;stroke:#000000;stroke-width:0.05178026;stroke-linecap:round;stroke-linejoin:round;stroke-miterlimit:4;stroke-dasharray:none;stroke-dashoffset:0;stroke-opacity:1;paint-order:markers stroke fill" />
      <path
         transform="scale(0.26458333)"
         inkscape:connector-curvature="0"
         id="path5561"
         d="m 79.598581,174.73954 c -0.0184,-0.11853 -0.04924,-0.41438 -0.06854,-0.65745 -0.0193,-0.24307 -0.105512,-1.32267 -0.191587,-2.39911 -0.676213,-8.4566 -1.107069,-16.18296 -1.395063,-25.01706 l -0.04168,-1.27847 0.97085,-0.001 c 3.312475,-0.005 16.818333,-0.13268 19.721807,-0.18648 4.770822,-0.0884 8.791042,-0.18182 9.857602,-0.22904 l 0.8925,-0.0395 0.0369,1.22261 c 0.0203,0.67244 0.0672,3.02668 0.10414,5.23166 0.10983,6.54924 0.35507,15.16596 0.60661,21.31419 l 0.0416,1.01645 -0.46637,0.0417 c -7.35465,0.65692 -16.441647,1.06457 -25.762738,1.15574 l -4.272567,0.0418 z"
         style="opacity:1;vector-effect:none;fill:#000000;fill-opacity:1;fill-rule:evenodd;stroke:#000000;stroke-width:0.05178026;stroke-linecap:round;stroke-linejoin:round;stroke-miterlimit:4;stroke-dasharray:none;stroke-dashoffset:0;stroke-opacity:1;paint-order:markers stroke fill" />
      <path
         transform="scale(0.26458333)"
         inkscape:connector-curvature="0"
         id="path5563"
         d="M 141.62055,156.24659 V 143.36714 H 154.5 167.37944 v 12.87945 12.87944 H 154.5 141.62055 Z"
         style="opacity:1;vector-effect:none;fill:#000000;fill-opacity:1;fill-rule:evenodd;stroke:#000000;stroke-width:0.05178026;stroke-linecap:round;stroke-linejoin:round;stroke-miterlimit:4;stroke-dasharray:none;stroke-dashoffset:0;stroke-opacity:1;paint-order:markers stroke fill" />
      <path
         transform="scale(0.26458333)"
         inkscape:connector-curvature="0"
         id="path5565"
         d="m 194.96924,156.24659 v -12.87945 h 12.87944 12.87945 v 12.87945 12.87944 h -12.87945 -12.87944 z"
         style="opacity:1;vector-effect:none;fill:#000000;fill-opacity:1;fill-rule:evenodd;stroke:#000000;stroke-width:0.05178026;stroke-linecap:round;stroke-linejoin:round;stroke-miterlimit:4;stroke-dasharray:none;stroke-dashoffset:0;stroke-opacity:1;paint-order:markers stroke fill" />
      <path
         transform="scale(0.26458333)"
         inkscape:connector-curvature="0"
         id="path5567"
         d="m 168.26333,182.88936 v -12.87945 h 12.91101 12.91101 v 12.87945 12.87944 h -12.91101 -12.91101 z"
         style="opacity:1;vector-effect:none;fill:#000000;fill-opacity:1;fill-rule:evenodd;stroke:#000000;stroke-width:0.05178026;stroke-linecap:round;stroke-linejoin:round;stroke-miterlimit:4;stroke-dasharray:none;stroke-dashoffset:0;stroke-opacity:1;paint-order:markers stroke fill" />
      <path
         transform="scale(0.26458333)"
         inkscape:connector-curvature="0"
         id="path5569"
         d="m 112.42662,200.16943 c -0.0672,-0.76299 -0.46424,-7.25788 -0.66652,-10.90348 -0.2901,-5.22819 -0.69583,-13.63488 -0.69642,-14.42987 l -2.4e-4,-0.31929 1.21534,-0.11037 c 8.94379,-0.81224 18.79154,-2.25738 26.54107,-3.89485 0.9771,-0.20646 1.80811,-0.37539 1.84668,-0.37539 0.0512,0 0.0701,3.47555 0.0701,12.86971 v 12.86971 l -0.45773,0.103 c -6.1969,1.39451 -9.87132,2.11599 -14.82083,2.91014 -3.53829,0.56771 -8.42623,1.22994 -11.42735,1.54821 -0.67712,0.0718 -1.30604,0.1433 -1.39761,0.15888 -0.16425,0.0279 -0.16701,0.0222 -0.20653,-0.4264 z"
         style="opacity:1;vector-effect:none;fill:#000000;fill-opacity:1;fill-rule:evenodd;stroke:#000000;stroke-width:0.05178026;stroke-linecap:round;stroke-linejoin:round;stroke-miterlimit:4;stroke-dasharray:none;stroke-dashoffset:0;stroke-opacity:1;paint-order:markers stroke fill" />
      <path
         transform="scale(0.26458333)"
         inkscape:connector-curvature="0"
         id="path5571"
         d="m 77.065492,202.01398 c -4.437145,-0.10577 -9.209718,-0.33466 -13.763328,-0.66007 -3.449096,-0.24649 -9.623798,-0.82101 -9.698369,-0.90239 -0.128302,-0.14002 -1.843521,-8.84981 -2.647631,-13.44453 -0.730987,-4.1769 -2.013836,-12.53884 -1.935645,-12.61703 0.01254,-0.0125 1.000816,0.0607 2.196163,0.16277 7.805583,0.66649 15.438957,1.04709 24.10622,1.20194 1.888942,0.0337 3.445013,0.0719 3.457935,0.0849 0.01292,0.0129 0.108356,0.92967 0.212078,2.03721 0.518313,5.53463 1.115889,10.96884 1.800164,16.37029 0.298387,2.35536 0.901912,6.86021 1.017985,7.59847 l 0.03722,0.23676 -1.381245,-0.0101 c -0.759685,-0.006 -2.290383,-0.0317 -3.401551,-0.0582 z"
         style="opacity:1;vector-effect:none;fill:#000000;fill-opacity:1;fill-rule:evenodd;stroke:#000000;stroke-width:0.05178026;stroke-linecap:round;stroke-linejoin:round;stroke-miterlimit:4;stroke-dasharray:none;stroke-dashoffset:0;stroke-opacity:1;paint-order:markers stroke fill" />
      <path
         transform="scale(0.26458333)"
         inkscape:connector-curvature="0"
         id="path5573"
         d="m 58.829613,230.2657 c -7.188943,-1.64257 -14.207367,-3.84333 -21.444175,-6.72423 -1.30215,-0.51837 -2.398629,-0.96335 -2.43662,-0.98884 -0.204821,-0.13744 -3.320045,-8.49751 -5.26355,-14.12535 -1.331142,-3.85462 -3.791016,-11.5461 -3.715276,-11.61684 0.01081,-0.0101 0.772542,0.14897 1.692727,0.35349 7.149315,1.58902 15.695848,3.01704 23.422913,3.91368 0.954909,0.11081 1.752982,0.22738 1.773494,0.25906 0.02051,0.0317 0.08689,0.29051 0.147503,0.57521 1.615032,7.58543 4.391023,18.14007 7.115704,27.05473 0.279403,0.91416 0.498341,1.67079 0.486526,1.68141 -0.01181,0.0106 -0.812474,-0.16143 -1.779246,-0.38232 z"
         style="opacity:1;vector-effect:none;fill:#000000;fill-opacity:1;fill-rule:evenodd;stroke:#000000;stroke-width:0.05178026;stroke-linecap:round;stroke-linejoin:round;stroke-miterlimit:4;stroke-dasharray:none;stroke-dashoffset:0;stroke-opacity:1;paint-order:markers stroke fill" />
      <path
         transform="scale(0.26458333)"
         inkscape:connector-curvature="0"
         id="path5575"
         d="m 88.212019,233.20188 c -1.571111,-7.18909 -4.082064,-21.32505 -5.259584,-29.60998 l -0.08604,-0.60537 3.791809,-0.0415 c 8.300489,-0.0908 16.401196,-0.51565 23.706706,-1.24323 0.67489,-0.0672 1.23712,-0.11216 1.24941,-0.0999 0.0123,0.0123 0.14931,1.7803 0.3045,3.92891 0.57654,7.98236 1.38819,17.56711 2.03896,24.07806 0.0642,0.6424 0.11043,1.1763 0.10271,1.18645 -0.008,0.0102 -0.72072,0.15727 -1.58446,0.32694 -7.20318,1.41496 -14.861258,2.24204 -22.034408,2.37974 l -2.154965,0.0414 z"
         style="opacity:1;vector-effect:none;fill:#000000;fill-opacity:1;fill-rule:evenodd;stroke:#000000;stroke-width:0.05178026;stroke-linecap:round;stroke-linejoin:round;stroke-miterlimit:4;stroke-dasharray:none;stroke-dashoffset:0;stroke-opacity:1;paint-order:markers stroke fill" />
      <path
         transform="scale(0.26458333)"
         inkscape:connector-curvature="0"
         id="path5577"
         d="M 141.62055,209.53213 V 196.65269 H 154.5 167.37944 v 12.87944 12.87945 H 154.5 141.62055 Z"
         style="opacity:1;vector-effect:none;fill:#000000;fill-opacity:1;fill-rule:evenodd;stroke:#000000;stroke-width:0.05178026;stroke-linecap:round;stroke-linejoin:round;stroke-miterlimit:4;stroke-dasharray:none;stroke-dashoffset:0;stroke-opacity:1;paint-order:markers stroke fill" />
      <path
         transform="scale(0.26458333)"
         inkscape:connector-curvature="0"
         id="path5579"
         d="m 194.96924,209.53213 v -12.87944 h 12.87944 12.87945 v 12.87944 12.87945 h -12.87945 -12.87944 z"
         style="opacity:1;vector-effect:none;fill:#000000;fill-opacity:1;fill-rule:evenodd;stroke:#000000;stroke-width:0.05178026;stroke-linecap:round;stroke-linejoin:round;stroke-miterlimit:4;stroke-dasharray:none;stroke-dashoffset:0;stroke-opacity:1;paint-order:markers stroke fill" />
    </g>
  </g>
  <g
     inkscape:groupmode="layer"
     id="layer2"
     inkscape:label="Logo"
     style="display:none">
    <g
       transform="translate(2.078869,-228.5107)"
       id="g5509">
      <g
         id="g5494">
        <path
           id="path3336-4"
           d="m 37.322804,263.35261 c -10.059525,-0.11697 -12.978693,-0.55317 -18.72275,-0.56135 3.657861,3.23132 6.263837,6.54748 10.152076,9.56476 0.15201,3.92753 0.477406,8.33311 1.567922,12.67847 0.42775,1.52576 -0.466153,2.63485 -1.73707,2.87604 -1.27525,0.24202 -2.641729,-0.46896 -2.904328,-2.1071 -0.689906,-4.54972 -1.135922,-8.90722 -1.406345,-12.92836 -4.541843,-4.42193 -6.60257,-7.17944 -15.5043646,-11.49145 -1.0619375,-0.38878 -1.2362817,-1.67694 1.9571956,-1.67957 13.317302,0.13783 13.173425,0.73456 26.597728,0.70784 0.05234,0.98528 -0.01486,1.9558 -6.4e-5,2.94072 z"
           style="opacity:1;vector-effect:none;fill:#4d7fde;fill-opacity:1;fill-rule:evenodd;stroke:#4d7fde;stroke-width:0.6544283;stroke-linecap:butt;stroke-linejoin:miter;stroke-miterlimit:4;stroke-dasharray:none;stroke-dashoffset:0;stroke-opacity:1"
           inkscape:connector-curvature="0"
           sodipodi:nodetypes="ccccccccccc" />
        <path
           sodipodi:nodetypes="cccccc"
           inkscape:connector-curvature="0"
           id="rect3340-9"
           d="m 37.322809,255.68532 c -1.349312,0.0284 -3.077142,-0.22537 -4.197442,-0.25577 -0.07422,-3.69375 -0.07312,-7.79244 0.934075,-11.68632 0.43953,-1.69926 2.025204,-1.86205 3.262693,-1.75396 z"
           style="opacity:1;vector-effect:none;fill:#ccdbf6;fill-opacity:1;stroke:#ccdbf6;stroke-width:0.6544283;stroke-linecap:round;stroke-linejoin:round;stroke-miterlimit:4;stroke-dasharray:none;stroke-dashoffset:0;stroke-opacity:1" />
        <path
           id="rect3340-5-6"
           d="m 19.947391,245.14179 c 2.624861,3.38084 4.40347,7.14475 7.12002,10.57698 -1.342009,0.67255 -2.48603,1.33863 -3.670474,2.07366 -2.860309,-4.00692 -4.117092,-6.11747 -7.637203,-9.91139 -1.239429,-1.33584 -0.603354,-2.57066 0.499422,-3.26087 1.103507,-0.69066 2.702375,-0.81863 3.688235,0.52162 z"
           style="opacity:1;vector-effect:none;fill:#ccdbf6;fill-opacity:1;stroke:#ccdbf6;stroke-width:0.65442836;stroke-linecap:round;stroke-linejoin:round;stroke-miterlimit:4;stroke-dasharray:none;stroke-dashoffset:0;stroke-opacity:1"
           inkscape:connector-curvature="0" />
      </g>
      <g
         transform="matrix(0.95826573,0,0,0.95826573,73.159797,-15.308708)"
         id="g988">
        <path
           inkscape:connector-curvature="0"
           style="opacity:1;vector-effect:none;fill:#4d7fde;fill-opacity:1;fill-rule:evenodd;stroke:#4d7fde;stroke-width:2.58115244;stroke-linecap:butt;stroke-linejoin:miter;stroke-miterlimit:4;stroke-dasharray:none;stroke-dashoffset:0;stroke-opacity:1"
           d="m -141.34562,220.95912 h 71.228928 c 4.682158,-0.40078 5.756527,3.46896 3.223484,6.11765 v 0 l -38.577092,43.12596 v 45.11415 c -0.17586,10.64012 -14.2819,10.46426 -14.54571,0 v -45.87281 l 32.871556,-36.88638 h -54.201416 z"
           id="path978"
           transform="matrix(0.26458333,0,0,0.26458333,0,229.26665)" />
        <path
           inkscape:connector-curvature="0"
           style="opacity:1;vector-effect:none;fill:#ccdbf6;fill-opacity:1;stroke:#ccdbf6;stroke-width:2.58115244;stroke-linecap:round;stroke-linejoin:round;stroke-miterlimit:4;stroke-dasharray:none;stroke-dashoffset:0;stroke-opacity:1"
           d="m -141.34851,148.29783 c 3.75975,0.068 7.52033,3.19379 7.38725,9.00486 v 0 45.01421 h -7.38459 z"
           id="path975"
           transform="matrix(0.26458333,0,0,0.26458333,0,229.26665)" />
        <path
           style="opacity:1;vector-effect:none;fill:#ccdbf6;fill-opacity:1;stroke:#ccdbf6;stroke-width:0.68292993;stroke-linecap:round;stroke-linejoin:round;stroke-miterlimit:4;stroke-dasharray:none;stroke-dashoffset:0;stroke-opacity:1"
           d="m -24.398719,273.54146 -6.991983,9.64159 3.164246,2.29468 6.991984,-9.64159 c 1.939552,-2.67454 -1.431449,-4.80301 -3.164247,-2.29468 z"
           id="rect3340-5-8-9"
           inkscape:connector-curvature="0"
           sodipodi:nodetypes="ccccc" />
      </g>
    </g>
  </g>
</svg>
